<svg width="49" height="32" viewBox="0 0 49 32" fill="none" xmlns="http://www.w3.org/2000/svg">
<mask id="mask0_171_8067" style="mask-type:alpha" maskUnits="userSpaceOnUse" x="0" y="0" width="49" height="32">
<rect width="49" height="32" fill="#C4C4C4"/>
</mask>
<g mask="url(#mask0_171_8067)">
<path fill-rule="evenodd" clip-rule="evenodd" d="M25 32C33.8366 32 41 24.8366 41 16C41 7.16345 33.8366 0 25 0C16.1634 0 9 7.16345 9 16C9 24.8366 16.1634 32 25 32ZM27.4696 12.3621C28.8334 10.9981 28.8334 8.78686 27.4696 7.42293C26.1057 6.05903 23.8944 6.05903 22.5305 7.42293C21.1666 8.78686 21.1666 10.9981 22.5305 12.3621L25 14.8316L27.4696 12.3621ZM28.638 18.4696C30.0019 19.8335 32.2132 19.8335 33.5771 18.4696C34.941 17.1057 34.941 14.8944 33.5771 13.5305C32.2132 12.1666 30.0019 12.1666 28.638 13.5305L26.1685 16.0001L28.638 18.4696ZM27.4696 24.5771C28.8334 23.2132 28.8334 21.0019 27.4696 19.638L25 17.1685L22.5305 19.638C21.1666 21.0019 21.1666 23.2132 22.5305 24.5771C23.8944 25.941 26.1057 25.941 27.4696 24.5771ZM16.4229 18.4696C15.059 17.1057 15.059 14.8944 16.4229 13.5305C17.7869 12.1666 19.9981 12.1666 21.3621 13.5305L23.8316 16.0001L21.3621 18.4696C19.9981 19.8335 17.7869 19.8335 16.4229 18.4696Z" fill="white"/>
</g>
</svg>
